<?xml version="1.0" standalone="no"?>
<!DOCTYPE svg PUBLIC "-//W3C//DTD SVG 20010904//EN"
 "http://www.w3.org/TR/2001/REC-SVG-20010904/DTD/svg10.dtd">
<svg version="1.0" xmlns="http://www.w3.org/2000/svg"
 width="1280.000000pt" height="1280.000000pt" viewBox="0 0 1280.000000 1280.000000"
 preserveAspectRatio="xMidYMid meet">
<metadata>
Created by potrace 1.15, written by Peter Selinger 2001-2017
</metadata>
<g transform="translate(0.000000,1280.000000) scale(0.100000,-0.100000)"
fill="#000000" stroke="none">
<path d="M6355 10480 c-22 -5 -65 -9 -96 -9 -31 -1 -124 -10 -205 -21 -685
-92 -1295 -340 -1854 -753 -697 -515 -1221 -1287 -1443 -2127 -172 -647 -178
-1311 -17 -1965 73 -299 164 -542 309 -830 454 -898 1231 -1585 2183 -1928
348 -126 710 -198 1151 -228 196 -13 404 -4 682 31 1289 164 2418 961 3006
2125 52 105 113 233 134 285 358 894 387 1850 84 2753 -327 973 -1045 1794
-1974 2256 -455 226 -921 357 -1440 403 -160 14 -470 19 -520 8z"/>
</g>
</svg>
